<svg width="188" height="42" viewBox="0 0 188 42" fill="none" xmlns="http://www.w3.org/2000/svg">
<path d="M64.9202 0.0853924C62.08 0.608358 58.0225 1.30265 58.0225 1.30265C56.8052 1.7084 56.3994 2.11415 55.1822 3.73716L35.7908 27.9054L37.2657 8.85522C37.1854 6.71463 35.9982 5.88219 33.9606 5.88219H33.4049C31.4291 5.88219 29.8094 6.59571 28.4981 8.85522L18.1913 28.7974L18.3841 19.5462C18.3157 17.584 17.3636 16.5732 15.3878 16.5732H9.7691C7.7933 16.5732 6.25899 17.6435 6.52933 19.5462L9.85144 38.9651C10.1787 41.1057 11.2876 41.9976 13.3869 41.9976H14.0043C16.1036 41.9976 17.8967 41.1057 19.2365 38.9651L27.6102 25.5865L28.4981 38.9651C28.6401 41.1057 29.9342 41.9976 32.0335 41.9976H32.5892C34.7502 41.9976 36.3581 41.1057 37.8831 38.9651C37.8831 38.9651 66.949 2.63712 67.3547 2.11415C67.7605 1.59118 67.7605 -0.437574 64.9202 0.0853924Z" fill="#C6C6C6"/>
<path d="M64.7436 18.198C62.8297 16.0927 59.576 15.3271 56.3703 15.3271C53.6429 15.3271 49.7195 16.3319 47.5663 17.4324C46.3701 18.0544 45.7003 19.0114 46.3223 20.7817L46.8008 22.1215C47.3749 23.6526 48.4754 23.7961 49.7195 23.222C50.485 22.9349 52.2075 22.2172 54.4564 22.2172C55.5568 22.2172 56.4659 22.4564 56.8966 22.9349C57.3272 23.3655 57.5664 24.0832 57.3272 24.9445L57.1837 25.4229C55.7004 24.9923 54.1214 24.6574 52.4468 24.6574C45.6046 24.6574 40.9634 28.1981 40.9634 33.557C40.9634 37.6719 44.3127 40.4949 49.3367 40.4949C52.1597 40.4949 54.9827 39.2508 57.3272 37.3369L57.2315 37.9111C56.9923 39.0594 57.7578 39.8729 59.2889 39.8729H61.2028C62.7818 39.8729 63.9301 38.9638 64.2172 37.3848L66.2747 25.71C66.8967 22.2172 66.179 19.8248 64.7436 18.198ZM56.1789 32.8393C56.0832 33.2699 54.7913 34.6575 52.9252 34.6575C51.3941 34.6575 50.3893 33.7005 50.3893 32.4565C50.3893 30.8775 51.6812 30.0163 53.4994 30.0163C54.6956 30.0163 55.9396 30.4948 56.5616 30.7818L56.1789 32.8393Z" fill="white"/>
<path d="M70.8362 39.8729H75.7645C77.3435 39.8729 78.3961 38.9638 78.7311 37.3848L83.9464 8.19786C84.2335 6.66674 83.5158 5.42271 81.889 5.70979L76.865 6.57105C75.6688 6.76244 74.2334 7.14522 73.8985 9.05911L68.7788 37.3848C68.4917 38.9638 69.2573 39.8729 70.8362 39.8729Z" fill="white"/>
<path d="M85.5082 39.8729H90.4365C92.0155 39.8729 93.0681 38.9638 93.403 37.3848L98.6184 8.19786C98.9055 6.66674 98.1878 5.42271 96.561 5.70979L91.537 6.57105C90.3408 6.76244 88.9054 7.14522 88.5704 9.05911L83.4508 37.3848C83.1637 38.9638 83.9292 39.8729 85.5082 39.8729Z" fill="white"/>
<path d="M114.152 14.9922C109.415 14.9922 105.491 16.8582 103.051 21.1645L104.247 15.1357H103.29L98.362 39.8729H99.3189L102.046 26.1406C103.386 19.442 107.788 15.9013 114.056 15.9013C119.223 15.9013 121.855 18.4372 121.855 22.7435C121.855 23.509 121.759 24.3703 121.568 25.2794L118.649 39.8729H119.606L122.525 25.2794C122.716 24.3703 122.812 23.509 122.812 22.6478C122.812 18.0544 119.941 14.9922 114.152 14.9922Z" fill="white"/>
<path d="M137.26 8.29356C137.978 8.29356 138.6 7.67154 138.6 6.95383C138.6 6.33181 138.074 5.80549 137.452 5.80549C136.734 5.80549 136.112 6.4275 136.112 7.14522C136.112 7.76724 136.638 8.29356 137.26 8.29356ZM130.323 39.8729H131.28L136.208 15.1357H135.251L130.323 39.8729Z" fill="white"/>
<path d="M162.667 15.1357H144.15L144.007 16.0448H160.993L139.126 39.1551L138.983 39.8729H157.978L158.17 38.9638H140.658L162.524 15.8534L162.667 15.1357Z" fill="white"/>
<path d="M187.761 27.4804C187.904 26.7627 188 25.9014 188 25.0402C188 18.7721 184.172 14.9922 177.904 14.9922C170.296 14.9922 164.698 21.4038 164.698 29.8249C164.698 36.3321 168.765 40.0164 175.608 40.0164C179.627 40.0164 183.215 38.4374 185.225 36.0451L184.651 35.423C182.641 37.7197 179.387 39.1073 175.655 39.1073C169.148 39.1073 165.607 35.8058 165.607 29.8249C165.607 29.0115 165.655 28.2459 165.751 27.4804H187.761ZM177.904 15.9013C183.311 15.9013 187.091 19.0114 187.091 24.7531C187.091 25.3272 187.091 25.9493 186.995 26.5713H165.894C167.139 20.2554 171.875 15.9013 177.904 15.9013Z" fill="white"/>
</svg>
